<svg fill="none" height="48" viewBox="0 0 48 48" width="48" xmlns="http://www.w3.org/2000/svg" xmlns:xlink="http://www.w3.org/1999/xlink"><filter id="a" color-interpolation-filters="sRGB" filterUnits="userSpaceOnUse" height="54" width="48" x="0" y="-3"><feFlood flood-opacity="0" result="BackgroundImageFix"/><feBlend in="SourceGraphic" in2="BackgroundImageFix" mode="normal" result="shape"/><feColorMatrix in="SourceAlpha" result="hardAlpha" type="matrix" values="0 0 0 0 0 0 0 0 0 0 0 0 0 0 0 0 0 0 127 0"/><feOffset dy="-3"/><feGaussianBlur stdDeviation="1.5"/><feComposite in2="hardAlpha" k2="-1" k3="1" operator="arithmetic"/><feColorMatrix type="matrix" values="0 0 0 0 0 0 0 0 0 0 0 0 0 0 0 0 0 0 0.1 0"/><feBlend in2="shape" mode="normal" result="effect1_innerShadow_3051_46957"/><feColorMatrix in="SourceAlpha" result="hardAlpha" type="matrix" values="0 0 0 0 0 0 0 0 0 0 0 0 0 0 0 0 0 0 127 0"/><feOffset dy="3"/><feGaussianBlur stdDeviation="1.5"/><feComposite in2="hardAlpha" k2="-1" k3="1" operator="arithmetic"/><feColorMatrix type="matrix" values="0 0 0 0 1 0 0 0 0 1 0 0 0 0 1 0 0 0 0.1 0"/><feBlend in2="effect1_innerShadow_3051_46957" mode="normal" result="effect2_innerShadow_3051_46957"/><feColorMatrix in="SourceAlpha" result="hardAlpha" type="matrix" values="0 0 0 0 0 0 0 0 0 0 0 0 0 0 0 0 0 0 127 0"/><feMorphology in="SourceAlpha" operator="erode" radius="1" result="effect3_innerShadow_3051_46957"/><feOffset/><feComposite in2="hardAlpha" k2="-1" k3="1" operator="arithmetic"/><feColorMatrix type="matrix" values="0 0 0 0 0.0627451 0 0 0 0 0.0941176 0 0 0 0 0.156863 0 0 0 0.24 0"/><feBlend in2="effect2_innerShadow_3051_46957" mode="normal" result="effect3_innerShadow_3051_46957"/></filter><filter id="b" color-interpolation-filters="sRGB" filterUnits="userSpaceOnUse" height="42" width="37.5" x="5.25" y="5.25"><feFlood flood-opacity="0" result="BackgroundImageFix"/><feColorMatrix in="SourceAlpha" result="hardAlpha" type="matrix" values="0 0 0 0 0 0 0 0 0 0 0 0 0 0 0 0 0 0 127 0"/><feMorphology in="SourceAlpha" operator="erode" radius="1.5" result="effect1_dropShadow_3051_46957"/><feOffset dy="2.25"/><feGaussianBlur stdDeviation="2.25"/><feComposite in2="hardAlpha" operator="out"/><feColorMatrix type="matrix" values="0 0 0 0 0.141176 0 0 0 0 0.141176 0 0 0 0 0.141176 0 0 0 0.1 0"/><feBlend in2="BackgroundImageFix" mode="normal" result="effect1_dropShadow_3051_46957"/><feBlend in="SourceGraphic" in2="effect1_dropShadow_3051_46957" mode="normal" result="shape"/></filter><linearGradient id="c" gradientUnits="userSpaceOnUse" x1="24" x2="26" y1=".000001" y2="48"><stop offset="0" stop-color="#fff" stop-opacity="0"/><stop offset="1" stop-color="#fff" stop-opacity=".12"/></linearGradient><linearGradient id="d"><stop offset="0" stop-color="#fff" stop-opacity=".8"/><stop offset="1" stop-color="#fff" stop-opacity=".5"/></linearGradient><linearGradient id="e" gradientUnits="userSpaceOnUse" x1="18.1422" x2="18.1422" xlink:href="#d" y1="8.25" y2="27.0783"/><linearGradient id="f" gradientUnits="userSpaceOnUse" x1="30.0658" x2="30.0658" xlink:href="#d" y1="20.9814" y2="39.75"/><linearGradient id="g" gradientUnits="userSpaceOnUse" x1="24.0884" x2="24.0884" xlink:href="#d" y1="14.4062" y2="34.0713"/><linearGradient id="h" gradientUnits="userSpaceOnUse" x1="24" x2="24" y1="0" y2="48"><stop offset="0" stop-color="#fff" stop-opacity=".12"/><stop offset="1" stop-color="#fff" stop-opacity="0"/></linearGradient><clipPath id="i"><rect height="48" rx="12" width="48"/></clipPath><g filter="url(#a)"><g clip-path="url(#i)"><rect fill="#087443" height="48" rx="12" width="48"/><path d="m0 0h48v48h-48z" fill="url(#c)"/><g filter="url(#b)"><path d="m18.8296 20.7424c4.1242-1.9725 7.3519-5.3197 9.2048-9.5038-1.1955-1.2552-2.7495-2.15179-4.4231-2.68974l-.8966-.29886c-.0598.11954-.1195.29887-.1195.41841-1.4346 4.06449-4.3634 7.35199-8.3083 9.20489-2.7495 1.315-4.7817 3.7059-5.73804 6.575l-.29886.8966c.11954.0597.29886.1195.4184.1195 1.13566.4184 2.2713.9564 3.3472 1.6139 1.4943-2.6898 3.8852-4.9611 6.814-6.3359z" fill="url(#e)"/><path d="m36.1625 20.9814c-2.2116 3.3473-5.2599 6.037-9.0255 7.8302-3.0484 1.4346-5.3794 4.1243-6.4553 7.352l-.2989 1.0161c1.1357 1.0162 2.5104 1.7932 4.0047 2.2714l.8966.2989c.0597-.1196.1195-.2989.1195-.4185 1.4345-4.0645 4.3633-7.3519 8.3083-9.2049 2.7495-1.315 4.8415-3.7059 5.738-6.5749l.2989-.8966c-1.2552-.3587-2.4507-.9564-3.5863-1.6737z" fill="url(#f)"/><path d="m17.9917 34.0713c1.4943-3.5863 4.2438-6.5151 7.7703-8.1888 3.2277-1.554 5.9174-3.9449 7.7703-6.8738-1.3747-1.315-2.5104-2.8093-3.3472-4.6025-2.2115 4.0646-5.6783 7.352-9.922 9.3843-2.4507 1.1357-4.4231 3.1082-5.6186 5.4991 1.315 1.2552 2.3909 2.8092 3.2277 4.5426 0 0 .0598.1196.1195.2391z" fill="url(#g)"/></g></g><rect height="46" rx="11" stroke="url(#h)" stroke-width="2" width="46" x="1" y="1"/></g></svg>